HIERARCHY
ROOT Elbow
{
	OFFSET	0.00	0.00	0.00
	CHANNELS 6 Xposition Yposition Zposition Zrotation Xrotation Yrotation
	JOINT L_Wrist
	{
		OFFSET	 0.208349	 0.000000	 0.000000
		CHANNELS 3 Zrotation Xrotation Yrotation
		JOINT L_index_Proximal
		{
			OFFSET	 0.093499	 0.010637	-0.002083
			CHANNELS 3 Zrotation Xrotation Yrotation
			JOINT L_index_b
			{
				OFFSET	 0.033152	 0.000000	 0.000000
				CHANNELS 3 Zrotation Xrotation Yrotation
				JOINT L_index_c
				{
					OFFSET	 0.018652	 0.000000	 0.000000
					CHANNELS 3 Zrotation Xrotation Yrotation
					End Site
					{
						OFFSET	 0.018652	 0.000000	 0.000000
					}
				}
			}
		}
		JOINT L_middle_Proximal
		{
			OFFSET	 0.090632	-0.006115	-0.003750
			CHANNELS 3 Zrotation Xrotation Yrotation
			JOINT L_middle_b
			{
				OFFSET	 0.037194	 0.000000	 0.000000
				CHANNELS 3 Zrotation Xrotation Yrotation
				JOINT L_middle_c
				{
					OFFSET	 0.021943	 0.000000	 0.000000
					CHANNELS 3 Zrotation Xrotation Yrotation
					End Site
					{
						OFFSET	 0.021943	 0.000000	 0.000000
					}
				}
			}
		}
		JOINT L_pinky_Proximal
		{
			OFFSET	 0.074015	-0.035449	-0.000417
			CHANNELS 3 Zrotation Xrotation Yrotation
			JOINT L_pinky_b
			{
				OFFSET	 0.027285	 0.000000	 0.000000
				CHANNELS 3 Zrotation Xrotation Yrotation
				JOINT L_pinky_c
				{
					OFFSET	 0.015093	 0.000000	 0.000000
					CHANNELS 3 Zrotation Xrotation Yrotation
					End Site
					{
						OFFSET	 0.015093	 0.000000	 0.000000
					}
				}
			}
		}
		JOINT L_ring_Proximal
		{
			OFFSET	 0.082801	-0.021859	-0.003750
			CHANNELS 3 Zrotation Xrotation Yrotation
			JOINT L_ring_b
			{
				OFFSET	 0.034478	 0.000000	 0.000000
				CHANNELS 3 Zrotation Xrotation Yrotation
				JOINT L_ring_c
				{
					OFFSET	 0.021377	 0.000000	 0.000000
					CHANNELS 3 Zrotation Xrotation Yrotation
					End Site
					{
						OFFSET	 0.021377	 0.000000	 0.000000
					}
				}
			}
		}
		JOINT L_thumb_Proximal
		{
			OFFSET	 0.030306	 0.018528	 0.004584
			CHANNELS 3 Zrotation Xrotation Yrotation
			JOINT L_thumb_a
			{
				OFFSET	 0.038520	 0.000000	 0.000000
				CHANNELS 3 Zrotation Xrotation Yrotation
				JOINT L_thumb_b
				{
					OFFSET	 0.026310	 0.000000	 0.000000
					CHANNELS 3 Zrotation Xrotation Yrotation
					End Site
					{
						OFFSET	 0.026310	 0.000000	 0.000000
					}
				}
			}
		}
	}
}
MOTION
Frames:    15
Frame Time: 0.01666667
-1.965123	-0.687701	 1.733180	-17.394750	 33.403310	 133.225400	 4.073103	 4.300792	 25.247960	-3.753662	 0.401537	-4.023973	-1.712798	 0.222630	-15.696960	-1.980981	 0.145644	-9.020661	-12.041170	-8.144057	-8.071776	 3.423698	-0.478342	-15.928430	 0.148110	-0.010318	-11.072950	-31.878070	-19.106300	-8.757063	 4.687533	-0.847159	-20.109410	 3.760272	-0.553610	-16.946100	-21.641830	-10.864900	-12.904090	 0.727275	-0.123870	-19.209350	 0.703423	-0.073577	-12.735860	 55.421450	 60.101110	-19.643170	-2.679132	 0.178803	-7.520923	 2.300613	-0.379861	-18.698440
-1.966875	-0.686928	 1.734178	-11.044740	 38.205990	 129.043700	 4.208732	 4.324095	 25.393040	-5.334584	 0.779339	-8.138175	-1.558991	 0.231787	-17.652900	-1.615461	 0.177131	-13.011520	-12.335980	-8.049853	-9.407818	 4.342305	-0.661113	-17.122570	 0.464839	-0.050272	-12.031890	-32.579750	-18.521800	-20.165370	 4.844908	-1.099662	-25.296550	 3.212757	-0.598576	-22.339310	-22.220300	-10.543970	-19.998020	 0.442136	-0.082395	-22.076820	 0.988358	-0.154808	-14.856140	 60.657620	 58.585320	-24.158570	-2.554850	 0.166410	-7.476446	 3.176712	-0.546087	-19.459410
-1.967557	-0.683240	 1.734609	-3.220717	 43.049920	 123.267800	 3.447579	 4.277819	 25.102990	-5.788989	 1.144791	-14.876870	-2.101694	 0.476478	-24.820710	-0.704081	 0.080988	-15.684940	-14.189250	-7.604344	-14.396910	 5.734348	-1.163572	-23.077190	 1.185784	-0.113513	-12.274800	-36.609570	-15.209150	-47.091640	 3.382750	-1.226097	-39.670460	 0.997927	-0.292545	-33.040520	-25.136380	-8.807242	-36.692700	 2.160996	-0.659069	-32.364170	 2.816254	-0.499333	-19.888460	 60.383960	 58.853030	-22.999030	-3.057392	 0.199845	-7.412811	 2.571061	-0.494979	-21.524820
-1.967093	-0.680688	 1.734752	-1.176888	 44.497010	 121.628200	 3.004639	 4.172829	 24.456620	-5.624517	 1.164291	-16.013880	-2.966001	 0.696101	-26.303050	-1.194491	 0.172425	-16.150690	-14.377360	-7.296037	-21.170790	 4.832250	-1.069941	-25.183240	 1.990495	-0.261972	-12.672450	-36.864170	-14.234410	-55.316860	 3.930096	-1.622006	-44.088070	 2.147391	-0.712348	-33.995440	-24.450020	-8.891421	-40.489480	 4.911386	-1.589069	-35.246940	 4.051732	-0.770807	-21.180050	 54.987540	 60.646570	-16.813930	-3.304980	 0.204930	-6.740498	 0.921689	-0.152917	-20.617310
-1.968300	-0.677591	 1.738757	 11.870770	 50.208250	 111.111600	 3.164845	 3.870080	 22.561190	-5.498757	 1.320926	-18.621800	-3.378323	 0.883224	-29.233370	-3.265061	 0.610819	-20.249030	-13.268910	-7.149541	-30.932500	 5.306802	-1.689990	-36.173160	 3.277945	-0.549968	-20.423290	-36.653630	-13.630340	-60.903230	 4.467624	-1.990711	-48.238610	 0.852097	-0.245204	-31.816640	-20.778660	-10.349000	-45.954360	 5.871478	-2.135316	-40.233060	 4.132296	-0.898908	-24.908780	 49.152610	 61.978490	-11.033360	-4.068552	 0.134822	-3.764009	-0.412465	 0.061436	-15.945760
-1.969290	-0.675894	 1.741455	 20.345220	 52.546440	 103.977700	 4.283634	 3.796167	 22.103160	-5.721620	 1.517128	-21.285520	-2.660183	 0.904996	-36.741860	-3.020803	 0.730599	-25.990740	-11.528390	-7.707829	-33.822930	 5.373149	-2.118221	-44.122990	 2.768943	-0.565405	-25.575510	-37.636150	-12.906870	-61.497940	 3.226306	-1.506035	-50.700390	-0.860674	 0.232620	-29.957950	-20.080820	-10.666680	-48.009780	 5.450579	-2.101469	-42.487780	 3.502035	-0.784720	-25.539170	 49.831300	 61.658490	-13.003910	-3.717734	 0.132462	-4.186190	 1.153719	-0.163769	-15.720920
-1.971085	-0.672767	 1.745184	 36.972560	 54.517440	 89.662680	 6.087374	 3.809853	 22.190630	-5.012610	 1.626013	-28.022280	-1.166317	 0.552029	-49.011510	-2.823094	 0.747781	-29.311150	-11.509070	-7.609423	-39.309040	 4.100545	-2.115433	-55.109210	 1.815875	-0.482594	-31.407080	-38.902890	-11.877290	-62.796100	 1.118646	-0.578775	-56.832900	-2.199757	 0.647424	-31.922860	-20.043800	-10.601160	-53.586010	 4.670459	-2.172859	-50.690380	 2.683796	-0.672452	-30.103690	 52.349040	 60.712170	-17.853620	-3.606575	 0.184720	-6.008051	 2.712512	-0.420391	-17.343140
-1.971606	-0.672276	 1.745774	 45.274410	 54.163720	 82.706730	 6.353568	 3.885406	 22.656930	-4.766372	 1.686288	-31.581690	-0.859938	 0.433585	-52.047310	-2.440560	 0.699517	-31.330130	-11.724800	-7.472815	-41.686470	 3.994285	-2.244536	-59.356950	 1.333951	-0.378703	-33.528950	-38.322110	-12.399390	-62.030740	 0.641412	-0.331298	-60.958600	-1.933022	 0.632825	-35.142540	-20.598810	-10.218410	-56.685030	 4.125260	-2.245095	-58.663540	 1.492151	-0.394613	-33.466140	 54.233810	 60.029410	-20.705150	-3.338021	 0.213359	-7.562384	 2.920182	-0.520821	-19.977550
-1.973368	-0.673163	 1.746138	 58.628090	 51.926940	 71.566760	 6.991154	 3.886795	 22.663550	-4.940474	 1.986820	-36.922460	 0.991647	-0.543680	-59.022630	-2.126511	 0.642090	-33.338270	-10.249160	-8.133866	-46.758550	 5.954073	-3.977019	-67.789220	 3.015325	-0.983847	-36.177860	-36.716830	-13.215950	-64.319160	 0.227546	-0.119235	-69.114770	-0.380580	 0.118074	-38.790700	-20.842620	-9.983149	-60.563380	 4.356767	-3.015678	-70.004530	 1.654408	-0.545780	-36.775140	 54.048950	 59.484710	-23.759360	-3.128438	 0.246304	-9.041848	 3.063501	-0.628541	-23.139830
-1.974065	-0.674327	 1.745980	 63.868160	 50.468400	 67.305660	 7.509037	 3.839383	 22.368980	-5.232427	 2.263150	-39.976300	 0.074030	-0.022742	-62.754640	-2.400226	 0.745561	-34.219640	-9.342358	-8.617505	-50.186400	 6.966481	-5.135026	-73.048280	 4.510182	-1.567275	-38.023850	-35.787900	-13.591510	-66.818150	 0.076050	-0.037665	-72.746490	 0.510226	-0.191153	-39.795340	-20.581600	-10.111960	-62.880300	 4.563015	-3.420577	-74.005460	 2.332047	-0.805264	-37.889930	 51.783240	 59.850160	-23.238510	-3.101773	 0.241450	-8.842371	 3.029679	-0.606336	-22.718230
-1.974925	-0.676819	 1.744703	 72.590740	 47.171150	 60.707030	 8.507298	 3.847570	 22.421550	-4.422148	 2.266125	-48.169760	-2.293549	 1.591550	-68.661310	-3.107902	 1.002697	-35.553880	-9.105057	-8.785107	-57.280860	 4.745571	-3.926938	-79.663360	 4.432848	-1.591291	-39.598970	-32.511590	-15.376850	-74.819030	 0.659352	-0.513807	-76.134650	 0.266532	-0.091410	-40.191250	-19.416700	-10.874270	-69.490490	 4.220792	-3.453891	-78.804080	 2.833553	-1.007248	-39.039180	 48.599210	 60.263230	-22.894520	-2.808794	 0.232040	-9.524847	 2.953645	-0.625669	-23.883580
-1.975371	-0.678059	 1.743199	 75.737670	 45.519940	 58.499010	 8.707015	 3.867266	 22.543540	-3.432655	 1.873066	-52.263740	-2.901474	 2.133533	-72.106080	-2.949837	 0.982523	-36.875550	-9.063249	-8.845806	-61.947380	 3.257909	-2.811955	-82.072650	 3.672914	-1.334847	-40.177590	-32.129440	-15.520740	-77.299570	-0.068771	 0.066236	-77.404740	-0.126181	 0.048931	-40.589600	-18.971170	-11.224370	-73.156900	 3.969983	-3.394318	-81.280000	 3.002569	-1.053059	-38.575760	 47.942130	 60.261250	-23.356610	-2.767563	 0.250734	-10.428470	 2.721709	-0.608855	-25.178130
-1.976707	-0.679947	 1.740332	 80.565120	 42.493250	 55.346430	 8.804580	 3.978658	 23.233240	-1.137117	 0.617582	-62.132790	-1.397827	 1.175526	-79.914920	-1.056993	 0.369004	-39.745190	-9.764458	-8.342224	-70.740380	 1.623176	-1.524112	-86.937960	 2.036869	-0.757610	-41.240920	-31.453890	-15.821400	-81.776040	-0.684461	 0.593433	-81.002140	-1.625684	 0.631395	-42.134830	-18.785380	-11.389980	-80.426930	 3.501008	-3.321340	-87.146630	 2.071022	-0.713047	-38.274670	 46.294530	 60.360830	-23.861020	-2.370417	 0.266064	-12.897340	 1.133322	-0.304332	-30.144820
-1.977609	-0.680439	 1.739170	 82.213710	 41.265480	 54.312910	 8.741804	 4.053349	 23.696760	-0.452570	 0.121303	-66.160900	-0.048273	 0.036826	-82.009250	 0.344766	-0.139034	-41.050700	-10.072070	-8.090589	-73.300170	 1.580900	-1.525391	-88.031490	 1.317104	-0.500112	-41.865160	-30.893920	-16.207890	-84.311330	-0.343255	 0.297954	-82.052040	-1.890162	 0.743877	-42.910520	-18.757200	-11.437570	-83.249680	 3.789532	-3.683843	-88.386110	 1.712935	-0.599958	-38.737270	 46.230530	 60.251970	-24.603600	-2.336012	 0.289897	-14.253700	 0.162516	-0.052030	-35.232600
-1.979722	-0.680515	 1.736921	 84.205780	 39.385220	 52.992200	 8.318622	 4.185305	 24.520150	 0.377471	-0.563415	-70.294330	 1.461044	-1.291136	-82.915270	 2.039993	-0.793303	-42.502900	-9.904910	-8.231254	-75.448570	 2.040592	-1.979159	-88.250070	 0.657471	-0.260126	-43.211480	-30.199610	-16.766640	-86.839450	-0.284317	 0.251838	-82.949160	-1.644260	 0.649107	-43.060890	-18.940590	-11.255620	-85.464420	 3.789325	-3.704188	-88.704030	 1.226351	-0.443496	-39.783500	 47.446810	 59.726480	-27.123860	-2.464003	 0.346680	-16.032880	-1.549765	 0.605059	-42.591160
